<svg xmlns="http://www.w3.org/2000/svg" viewBox="0 0 128 128"><defs><radialGradient id="g" cx="47%" cy="46%" r="70%"><stop stop-color="#52dfc1" stop-opacity=".3"/><stop offset="1" stop-color="#06080d" stop-opacity="0"/></radialGradient></defs><rect x="4" y="4" width="120" height="120" rx="28" fill="#07110f" stroke="#52dfc1" stroke-opacity=".3"/><rect x="5" y="5" width="118" height="118" rx="27" fill="url(#g)"/><circle cx="58" cy="70" r="34" fill="none" stroke="#d9fff7" stroke-width="5"/><path d="M24 70h68M30 52c17 9 39 9 56 0M30 88c17-9 39-9 56 0M58 36c-12 12-17 22-17 34s5 24 17 34M58 36c12 12 17 22 17 34s-5 24-17 34" fill="none" stroke="#52dfc1" stroke-opacity=".72" stroke-width="2.5" stroke-linecap="round"/><path d="m98 17 3.5 8.5L110 29l-8.5 3.5L98 41l-3.5-8.5L86 29l8.5-3.5z" fill="#eafffa"/><path d="M98 10v7M98 41v7M79 29h7M110 29h7" stroke="#52dfc1" stroke-width="2" stroke-linecap="round"/></svg>
