<svg xmlns="http://www.w3.org/2000/svg" viewBox="0 0 512 512"><defs><linearGradient id="bg" x1="70" y1="48" x2="446" y2="470" gradientUnits="userSpaceOnUse"><stop stop-color="#111728"/><stop offset=".52" stop-color="#090d16"/><stop offset="1" stop-color="#05070b"/></linearGradient><radialGradient id="light" cx="50%" cy="40%" r="58%"><stop stop-color="#a9b9ff" stop-opacity=".28"/><stop offset="1" stop-color="#7188db" stop-opacity="0"/></radialGradient><linearGradient id="glass" x1="182" y1="112" x2="342" y2="366" gradientUnits="userSpaceOnUse"><stop stop-color="#dce4ff" stop-opacity=".2"/><stop offset=".5" stop-color="#91a8ff" stop-opacity=".08"/><stop offset="1" stop-color="#4d65ab" stop-opacity=".03"/></linearGradient></defs><rect width="512" height="512" rx="116" fill="url(#bg)"/><rect x="9" y="9" width="494" height="494" rx="109" fill="none" stroke="#dce4ff" stroke-opacity=".08" stroke-width="2"/><rect width="512" height="512" rx="116" fill="url(#light)"/><path d="M58 256h396" stroke="#91a8ff" stroke-opacity=".2" stroke-width="2"/><rect x="182" y="108" width="148" height="258" rx="44" fill="url(#glass)" stroke="#cbd6ff" stroke-opacity=".42" stroke-width="3"/><path d="M219 113v248M256 113v248M293 113v248" stroke="#91a8ff" stroke-opacity=".13" stroke-width="2"/><path d="M207 190h98v31h-33v104h-33V221h-32z" fill="#f4f6ff"/><path d="M208 190h96" stroke="#fff" stroke-opacity=".55" stroke-width="3"/><path d="M194 345h38M280 345h38" stroke="#91a8ff" stroke-opacity=".36" stroke-width="2" stroke-linecap="round"/><circle cx="256" cy="345" r="4" fill="#72cfbd"/></svg>
